<svg version="1" xmlns="http://www.w3.org/2000/svg" width="1846.667" height="1846.667" viewBox="0 0 1385.000000 1385.000000"><path d="M389.6 78.7c-.1.1-4.7.5-10.2.8-9.1.4-13.8.8-23.4 1.9-6.7.8-15.8 2.2-17 2.6-.3.1-.8.2-1.2.1-.4 0-5.1.9-10.5 2s-10.9 2.2-12.3 2.5c-1.4.3-3.2.7-4 1-.8.3-2.6.8-4 1.1-4.3.9-5.5 1.1-5.5 1.3 0 .1-.7.3-1.5.5-6.9 1.6-20.5 6-29 9.2-.8.3-2.2.7-3 .9-.8.2-2.3.7-3.5 1.2-6.1 2.9-9.5 4.2-10.9 4.2-.9 0-1.6.4-1.6 1 0 .5-.6 1-1.4 1-2 0-11 4.1-11.8 5.4-.4.6-.8.8-.8.4 0-.7-22.1 9.9-23 11.1-.3.3-2.5 1.6-5 2.9-2.5 1.2-5.8 3.1-7.5 4.1-1.6 1.1-4.8 2.9-7 4.1-2.2 1.2-4.2 2.5-4.5 2.9-.3.3-4.2 3-8.7 6-4.6 2.9-8.3 5.8-8.3 6.3s-.5.6-1 .3c-.6-.3-1.3.1-1.6.9-.3.9-1.1 1.6-1.7 1.6-.6 0-1.7.7-2.6 1.5-.9.9-4.3 3.6-7.6 6.1-16.2 12.2-40.5 35.6-55.5 53.4-9.5 11.3-11.5 13.9-19.5 24.7-4.1 5.6-7.5 10.5-7.5 10.8 0 .3-.8 1.4-1.8 2.5-.9 1-2.6 3.6-3.7 5.7s-2.6 4.4-3.3 5.2c-.8.8-1.8 2.4-2.3 3.5-.5 1.2-2 3.9-3.3 6.1-5.3 8.7-16.5 30.7-21.5 42.5-4.5 10.5-4.6 10.7-7.6 19-1.4 4.1-3 8.4-3.5 9.5-4.6 10.8-14.5 51.9-16.5 68.1-.3 2.7-.8 6.2-1.1 7.7-.7 3.2-1.4 10.4-1.7 15.7-.1 1.9-.5 3.9-.8 4.5-.7 1.2-.3 60.1.5 66 .3 2.2.8 6.5 1 9.5.3 3 1.5 11.1 2.6 18 2.6 15.2 2.7 15.9 3.4 19 1 4.5 2.8 12.5 3.2 14.5.2 1.1 1 4.2 1.8 7 .9 2.7 2.4 8.2 3.5 12.2s2.5 8.1 3.1 9.3c.6 1.1.8 2.5.5 3-.3.6-.3 1 .2 1 .7 0 2.5 4.3 3.7 9 .3.8 1.1 3.1 2 5.1.8 2 1.2 3.9.9 4.3-.4.3-.1.6.5.6.7 0 1.2.5 1.2 1.1 0 .5.9 2.9 1.9 5.2 3 6.5 5 11.7 4.8 12-.1.1.8 1.6 2.1 3.4 1.2 1.7 2.2 3.5 2.2 4.1 0 .5 2.3 5.1 5.2 10.3 2.8 5.2 5.8 10.7 6.6 12.4.9 1.6 3.4 5.9 5.7 9.5 2.3 3.6 5.2 8.2 6.4 10.3 1.3 2.1 2.8 4.3 3.5 5 .6.6 2.5 3.3 4.1 5.9 1.7 2.7 3.3 4.8 3.8 4.8.4 0 .7.5.7 1.1 0 .6 1.3 2.7 3 4.7 1.6 2 5.5 6.8 8.6 10.7 7.2 8.9 11.8 14.5 15.5 18.6 1.6 1.8 2.9 3.7 2.9 4.2 0 .6.3.7.7.4.3-.4 1.4.6 2.3 2.1 2.9 4.8 11 13 107 109.5 51.4 51.6 95.6 96 98.2 98.6 2.6 2.7 5 4.6 5.3 4.3.3-.3.5-.1.5.4 0 1 351.2 352.6 352.7 353.1.7.3 499.8-498.8 543.3-543.3 9.1-9.3 18.1-18.9 20-21.4 1.9-2.4 4.2-5.2 5-6 .8-.9 4-4.4 7-7.9s6-6.9 6.5-7.5c5.6-5.9 28.5-37.8 28.5-39.5 0-.5.4-1.1.9-1.3 2.4-.9 23.1-39.8 30.6-57.8 1.5-3.6 3.3-7.9 4-9.5 1.6-3.7 7.4-19.9 8.6-24 .4-1.7 1.6-5.5 2.5-8.5 5.3-17.7 11.9-49.3 13-62 .2-2.5.6-5.4.9-6.6 2.6-11.3 2.6-73.4.1-87-.2-1-.7-4.4-1.1-7.4-5.5-44.6-19-87.7-40.5-130-5.3-10.5-7.5-14.5-16.5-29.4-3.2-5.2-20.3-29.7-21.4-30.6-.3-.3-1.9-2.3-3.6-4.5-1.6-2.2-3.4-4.5-4-5.1-.5-.6-2.8-3.2-5-5.9-12.8-15.4-44.4-46.1-53.1-51.5-1.3-.8-2.4-1.8-2.4-2.2 0-.5-.7-.8-1.5-.8s-1.5-.4-1.5-.8c0-1-16.6-13.2-18-13.2-.5 0-1-.4-1-.8s-2.2-2.1-5-3.7c-2.7-1.7-5-3.3-5-3.8 0-.4-.5-.7-1.1-.7-.6 0-3.4-1.6-6.3-3.5s-5.8-3.5-6.4-3.5c-.6 0-1.2-.4-1.4-.9-.1-.5-1-1.1-1.8-1.3-.8-.2-1.7-.5-2-.8-1.4-1.5-6.1-4-7.5-4-.8 0-1.5-.4-1.5-.8 0-1-20.1-10.8-21.2-10.4-.5.1-.8-.2-.8-.8 0-.5-.6-1-1.4-1-.8 0-3.1-.9-5.3-1.9-5.3-2.7-11-5.1-11.8-5.1-.4 0-2.1-.7-3.8-1.5-3.9-1.8-32.4-11.2-35.8-11.8-1.3-.2-3.1-.7-3.9-1.1-1.7-.7-14.3-3.6-17.5-4.1-1.1-.1-3.8-.7-6-1.3-2.2-.6-6.2-1.3-8.9-1.7-2.7-.3-5.2-.8-5.5-1-.3-.1-3.3-.6-6.5-.9-3.3-.4-7.3-.9-9-1.1-20.2-3.2-63-3.6-88.1-.9-9.6 1-11 1.2-11 1.4 0 .1-1.8.3-4 .5-2.1.3-5.5.7-7.5 1-1.9.3-5 .8-6.9 1.1-1.8.3-4.1.7-5 .9-.9.2-5.5 1.2-10.3 2.1-4.9 1-8.8 2.1-8.8 2.6s-.4.7-.8.4c-.4-.3-2.6 0-4.8.5-2.1.5-4.3 1.1-4.9 1.2-.5.1-1.6.6-2.2 1-.7.5-1.3.6-1.3.3s-1.9.2-4.2 1c-2.4.9-5.4 1.8-6.7 2-1.3.3-3.2.9-4.3 1.5-1 .5-1.8.8-1.8.5 0-.4-2.7.6-13.5 4.9-1.1.4-2.4.9-3 1-6.2 1.5-53 23.8-55.5 26.5-.3.3-1.8 1.2-3.5 2-1.6.8-3.2 1.7-3.5 2-.3.3-2.5 1.8-5 3.2-5.5 3.2-28.6 19.3-31.4 22-1.2 1.1-3.6 2.8-5.3 3.9-1.8 1.2-3.3 2.5-3.3 3s-.4.9-1 .9c-.5 0-1.8.8-2.8 1.7-1 1-4.5 4-7.7 6.8-3.3 2.7-7.1 6-8.5 7.2-1.4 1.2-3.9 3.4-5.6 4.7l-3.1 2.6-4.4-3.2c-2.4-1.7-5.9-4.6-7.9-6.4-3.3-3.1-4.8-4.3-10.1-8.8-1.2-1-6.3-5-11.3-9-5-3.9-9.2-7.4-9.4-7.9-.2-.4-.9-.7-1.7-.7-.7 0-1.8-.7-2.5-1.4-1.6-2-24.8-17.3-33.5-22.2-3.8-2.1-8.8-4.9-11-6.1-6.9-3.9-26.8-13.5-30.9-14.9-2.2-.8-4.4-1.8-5-2.3-.6-.5-2.9-1.4-5.1-2.1-2.2-.7-4.6-1.7-5.2-2.3-.7-.5-1.3-.6-1.3-.2 0 .4-.7.2-1.5-.5s-1.5-1-1.5-.6-1 0-2.3-.9c-1.3-.8-2.7-1.2-3-.9-.4.4-1.3.2-2-.4-.7-.7-2.2-1.3-3.3-1.5-1-.2-2.7-.7-3.6-1.1-.9-.4-2.2-.9-3-1-.7-.2-2-.6-2.8-.9-2.2-.9-12.5-3.7-15.4-4.3-1.4-.2-3.7-.9-5.1-1.4-1.4-.5-2.5-.7-2.5-.5 0 .2-1.2 0-2.6-.5-1.5-.6-4.1-1.2-5.8-1.5-3-.4-4.1-.6-9.6-1.9-1.4-.3-4.1-.8-6-1.1-1.9-.2-4.4-.7-5.6-.9-1.2-.2-4.5-.8-7.5-1.1-3-.4-6.5-.9-7.9-1.1-1.4-.2-5.4-.6-9-.9-3.6-.3-8.7-.8-11.5-1.1-5.6-.5-41.4-1.2-41.9-.7z"/></svg>