<?xml version="1.0" standalone="no"?>
<!DOCTYPE svg PUBLIC "-//W3C//DTD SVG 20010904//EN"
 "http://www.w3.org/TR/2001/REC-SVG-20010904/DTD/svg10.dtd">
<svg version="1.0" xmlns="http://www.w3.org/2000/svg"
 width="160.000000pt" height="160.000000pt" viewBox="0 0 160.000000 160.000000"
 preserveAspectRatio="xMidYMid meet">
<metadata>
Created by potrace 1.11, written by Peter Selinger 2001-2013
</metadata>
<g transform="translate(0.000000,160.000000) scale(0.100000,-0.100000)"
fill="#000000" stroke="none">
<path d="M733 1490 c-10 -11 -25 -20 -34 -20 -35 0 -258 -70 -349 -109 -99
-43 -194 -102 -204 -127 -17 -44 47 -94 138 -108 47 -8 56 -13 56 -33 0 -9 9
-31 21 -49 19 -31 24 -69 18 -119 -7 -52 29 -195 50 -195 11 0 5 -73 -8 -98
-6 -10 -8 -21 -6 -24 2 -2 -9 -19 -25 -37 -31 -33 -32 -51 -2 -51 10 -1 0 -10
-20 -21 -21 -11 -38 -23 -38 -28 0 -14 23 -28 60 -37 67 -15 100 -12 248 20
12 3 22 1 22 -5 0 -5 -7 -9 -15 -9 -21 0 -55 -20 -84 -50 -13 -13 -29 -25 -35
-27 -42 -8 -59 -14 -104 -33 -27 -12 -60 -32 -71 -44 l-22 -23 -62 21 c-66 22
-93 25 -143 13 -34 -9 -84 -57 -100 -97 -13 -31 -9 -104 9 -156 l14 -39 654
-2 c360 -2 659 -1 666 1 9 4 8 17 -2 56 -14 52 -7 96 16 111 10 6 119 252 119
268 0 4 14 36 31 72 37 74 40 94 25 168 -11 54 -36 83 -36 42 0 -13 -14 -30
-39 -45 -36 -23 -51 -46 -56 -86 -4 -36 -18 -96 -25 -105 -5 -5 -26 -67 -47
-136 l-39 -127 -29 34 c-29 33 -124 86 -178 99 -15 4 -32 15 -37 25 -6 10 -18
26 -27 36 -17 16 -16 17 21 10 100 -19 214 3 237 45 8 15 6 21 -8 26 -32 11
-44 25 -33 38 7 8 3 16 -15 25 -13 7 -29 28 -36 47 -13 41 -10 113 7 133 18
21 35 102 39 186 2 39 10 87 18 106 15 36 23 76 32 165 3 29 14 72 25 96 19
43 24 78 17 127 -9 61 -112 89 -305 84 -70 -1 -152 -6 -183 -9 -37 -4 -59 -3
-63 4 -11 18 -45 13 -63 -9z"/>
</g>
</svg>
